<svg enable-background="new 0 0 72 72" height="72" width="72" xmlns="http://www.w3.org/2000/svg"><g fill="#00ac73"><circle cx="49.8" cy="43.7" r="1.6"/><circle cx="52.9" cy="37.8" r="1.6"/><circle cx="56" cy="32" r="1.6"/><circle cx="59.1" cy="26.2" r="1.6"/><path d="m49.9 30.8c.8.4 1.1 1.4.7 2.1-.3.7-1.1 1-1.8.8-.1 0 .9-3.1 1.1-2.9z"/><circle cx="52.3" cy="26.3" r="1.6"/><circle cx="55.3" cy="20.5" r="1.6"/><circle cx="46.9" cy="61.1" r="1.6"/><circle cx="50" cy="55.3" r="1.6"/><circle cx="53.1" cy="49.5" r="1.6"/><circle cx="56.2" cy="43.6" r="1.6"/><circle cx="59.3" cy="37.7" r="1.6"/><circle cx="62.3" cy="31.9" r="1.6"/><circle cx="65.4" cy="26.1" r="1.6"/><path d="m48.9 68.4c-.4 0-.7-.1-1.1-.3l-13.9-7.1.6-1.2 13.9 7.1c.5.3 1.1.1 1.4-.4l20.7-40.6c.3-.5.1-1.1-.4-1.4l-19.4-9.9.6-1.2 19.4 9.9c.6.3 1 .8 1.2 1.4s.1 1.2-.1 1.8l-20.8 40.6c-.4.8-1.2 1.3-2.1 1.3z"/><path d="m45.8 56.5h-.2l-2-.2.1-1.3 2 .2c.3 0 .5-.1.7-.2.2-.2.3-.4.4-.7l4-45.4c0-.6-.4-1-.9-1.1l-31.1-2.8c-.3 0-.5.1-.7.2-.2.2-.3.4-.4.7l-.7 8.3-1.3-.1.7-8.4c.1-.6.4-1.2.8-1.6.5-.4 1.1-.6 1.7-.5l31 2.7c1.3.1 2.3 1.3 2.1 2.6l-4 45.4c-.1.6-.4 1.2-.8 1.6-.3.4-.8.6-1.4.6z"/><path d="m11.8 65.8c-1.1 0-2.1-.8-2.3-1.9l-9.4-44.6c-.1-.6 0-1.2.3-1.8.3-.5.9-.9 1.5-1l30.5-6.4c.6-.1 1.2 0 1.8.3.5.3.9.9 1 1.5l9.4 44.6c.1.6 0 1.2-.3 1.8-.3.5-.9.9-1.5 1l-30.5 6.4c-.2.1-.4.1-.5.1zm21.1-54.4h-.2l-30.5 6.5c-.3.1-.5.2-.6.4s-.2.5-.1.8l9.4 44.6c.1.5.7.9 1.2.8l30.4-6.5c.5-.1.9-.7.8-1.2l-9.4-44.6c-.1-.3-.2-.5-.4-.6-.3-.1-.4-.2-.6-.2z"/><path d="m8.22 58.075.766-1.171 9.54 6.24-.766 1.172zm-2.042-10.555.767-1.173 22.512 14.725-.766 1.172zm-2.398-10.682.766-1.172 35.317 23.1-.766 1.172zm-2.21-10.658.766-1.172 41.092 26.877-.767 1.172zm1.045-8.46.767-1.171 37.828 24.741-.767 1.172zm10.472-2.429.766-1.171 25.442 16.64-.766 1.172zm10.406-2.299.766-1.172 12.637 8.266-.766 1.171z"/></g></svg>